<svg xmlns="http://www.w3.org/2000/svg" viewBox="0 0 58 58"><style>.a{fill:#D19D18;}.b{fill:#FCC62D;}.c{fill:#E4AF18;}.d{fill:#6B5B46;}</style><path d="M32.8 18.2c-1.3 0-2.6-0.5-3.5-1.5 -0.4-0.4-0.4-1 0-1.4 0.4-0.4 1-0.4 1.4 0 1.2 1.2 3.1 1.2 4.2 0 0.4-0.4 1-0.4 1.4 0 0.4 0.4 0.4 1 0 1.4C35.4 17.7 34.1 18.2 32.8 18.2" fill="#4C4031"/><path d="M39 39.7L39 39.7v0 -4c0-0.8 2.6-2.3 6.2-2.9 -1.3-2.7-3.2-5.2-5.7-7.1l-7.2-4.9c-0.4-0.3-0.8-0.6-1.2-0.8 -0.6-1.7-0.9-3.4-1.1-5.2l-0.5-4.8c0-0.4 0-0.9 0-1.3 0.1-0.5 0.1-1.3 0.2-1.4 0.1-0.2 0.1-0.4 0.2-0.6 0.4-0.8 0.9-1.7 1.4-2.3 0.2-0.2 0.4-0.4 0.6-0.6 1.2-1 0.9-2.8-0.6-3.3 -0.8-0.3-1.6-0.5-2.5-0.5 -0.1 0-0.2 0-0.2 0 -0.2 0-0.4 0-0.6 0 -1.2 0.1-2.3 0.4-3.4 1.3 -0.4 0.3-0.8 0.4-1.2 0.4 -0.4 0-0.9-0.1-1.2-0.4 -1.3-1.1-2.8-1.4-4.3-1.3 -0.9 0-1.7 0.2-2.5 0.5 -1.4 0.5-1.7 2.3-0.6 3.3 0.1 0.1 0.3 0.2 0.4 0.4 0 0 0.1 0.1 0.1 0.1 0.2 0.2 0.3 0.4 0.5 0.6 0.6 0.8 1 1.7 1.2 2.4 0.1 0.2 0.1 1.3 0.2 1.9 0.1 0.4 0.1 0.7 0.1 1.1v3.5c0 2-0.3 4.1-0.7 6 -0.5 0.2-0.9 0.5-1.4 0.8l-7 5.1c-6.9 5.5-9.3 15.1-5.3 22.9 1.7 3.3 4 6.1 6.7 6.3C9.8 55 10.1 55 10.3 55h19.7c-0.2-0.4-0.5-0.9-0.6-1.4 0.1 0 0.2 0 0.3 0 6.5-0.4 10.7-4.5 9.3-10.3V39.7z" fill="#C7B6A1"/><path d="M48 41.6c-5 0-9-0.9-9-1.9v4c0 1.1 4 1.9 9 1.9 5 0 9-0.9 9-1.9v-4C57 40.7 53 41.6 48 41.6" class="a"/><path d="M39 39.7L39 39.7 39 39.7z" class="a"/><path d="M57 39.7L57 39.7 57 39.7z" class="a"/><path d="M57 35.7c0 1.1-4 1.9-9 1.9 -5 0-9-0.9-9-1.9 0-1.1 4-3.1 9-3.1C53 32.6 57 34.6 57 35.7" class="b"/><path d="M48 37.6c-5 0-9-0.9-9-1.9v4c0 1.1 4 1.9 9 1.9 5 0 9-0.9 9-1.9v-4C57 36.7 53 37.6 48 37.6" class="c"/><path d="M39 35.7L39 35.7 39 35.7z" class="c"/><path d="M57 35.7L57 35.7 57 35.7z" class="c"/><path d="M30 17h-13c-0.6 0-1-0.4-1-1 0-0.6 0.4-1 1-1h13c0.6 0 1 0.4 1 1C31 16.6 30.6 17 30 17" class="d"/><path d="M30 14h-13c-0.6 0-1-0.4-1-1s0.4-1 1-1h13c0.6 0 1 0.4 1 1S30.6 14 30 14" class="d"/><path d="M30 11h-13c-0.6 0-1-0.4-1-1s0.4-1 1-1h13c0.6 0 1 0.4 1 1S30.6 11 30 11" class="d"/><path d="M48 53.6c-2 0-3.9-0.1-5.4-0.4 -0.5 1.4-1.3 2.6-2.5 3.4 1.5 0.6 4.5 1 7.8 1 5 0 9-0.9 9-1.9v-4C57 52.7 53 53.6 48 53.6" class="c"/><path d="M48 45.6c-5 0-9-0.9-9-1.9v1c1.8 0.9 3.2 2.5 3.8 4.6 1.5 0.2 3.3 0.4 5.2 0.4 5 0 9-0.9 9-1.9v-4C57 44.7 53 45.6 48 45.6" class="c"/><path d="M48 49.6c-2 0-3.8-0.1-5.2-0.4 0.1 0.6 0.2 1.2 0.2 1.8 0 0.8-0.1 1.5-0.4 2.2 1.5 0.2 3.4 0.4 5.4 0.4 5 0 9-0.9 9-1.9v-4C57 48.7 53 49.6 48 49.6" class="a"/><path d="M43 51c0 3.9-3.1 7-7 7 -3.9 0-7-3.1-7-7s3.1-7 7-7C39.9 44 43 47.1 43 51" class="b"/><path d="M8 41c-0.6 0-1-0.4-1-1 0-6.9 7.6-15 14-15 0.6 0 1 0.4 1 1 0 0.6-0.4 1-1 1 -5.3 0-12 7.3-12 13C9 40.6 8.6 41 8 41" fill="#DBCCBA"/></svg>
 
