<svg xmlns="http://www.w3.org/2000/svg" viewBox="0 0 512 512"><title>Удлиненная газель-тент - 4 метра</title><desc>Длинная база газели позволяет перевозить габаритные грузы</desc><style>.a{fill:#5C546A;}.b{fill:#8A8895;}</style><rect x="336" y="200" width="40" height="176" class="a"/><path d="M480 392H32c-8.8 0-16-7.2-16-16v-16h480v16C496 384.8 488.8 392 480 392z" class="a"/><path d="M492 247.5l-77.9-108.6C412.6 137.1 410.4 136 408 136h-32c-4.4 0-8 3.6-8 8v216c0 4.4 3.6 8 8 8h112c13.2 0 24-10.8 24-24v-72.9C512 259.3 503.4 249.4 492 247.5z" fill="#FF4F19"/><path d="M446.7 144c10.3 0 19.5 6.6 22.8 16.4l22.6 87c0 0-57.5-11.7-74.5-16.3C407.1 228.3 400 218.8 400 208v-64H446.7z" class="a"/><path d="M400 152c-4.4 0-8-3.6-8-8v-38.1c0-4.3-1.7-8.3-4.7-11.3l-9-9c-3.1-3.1-3.1-8.2 0-11.3s8.2-3.1 11.3 0l9 9c6 6.1 9.4 14.1 9.4 22.6V144C408 148.4 404.4 152 400 152z" class="b"/><path d="M328 104H24c-13.2 0-24 10.8-24 24v216c0 13.2 10.8 24 24 24 0 0 315.6 0 320 0s8-3.6 8-8V128C352 114.8 341.2 104 328 104z" fill="#527991"/><path d="M0 344c0 13.2 10.8 24 24 24h320c4.4 0 8-3.6 8-8v-56H0V344z" fill="#5D647F"/><path d="M248 408h-64c-8.8 0-16-7.2-16-16v-16c0-8.8 7.2-16 16-16h64c8.8 0 16 7.2 16 16v16C264 400.8 256.8 408 248 408z" class="b"/><path d="M192 392c-2.1 0-4.2-0.9-5.7-2.3 -1.4-1.5-2.3-3.6-2.3-5.7 0-2.1 0.9-4.2 2.3-5.7 3-3 8.4-3 11.4 0 1.4 1.5 2.3 3.6 2.3 5.7 0 2.1-0.9 4.2-2.4 5.7C196.2 391.1 194.1 392 192 392z" class="a"/><path d="M484 304c-6.6 0-12 5.4-12 12s5.4 12 12 12h12v-24H484z" fill="#FFD100"/><circle cx="96" cy="384" r="56" class="a"/><circle cx="96" cy="384" r="32" class="b"/><circle cx="416" cy="384" r="56" class="a"/><circle cx="416" cy="384" r="32" class="b"/><rect x="496" y="304" width="16" height="24" fill="#FFF"/><path d="M472 136h-96c-4.4 0-8 3.6-8 8v8h104c4.4 0 8-3.6 8-8S476.4 136 472 136z" fill="#E7001E"/></svg>
