<svg xmlns="http://www.w3.org/2000/svg" viewBox="0 0 496.2 496.2"><style>.a{fill:#768989;}.b{fill:#E56505;}.c{fill:#FFA300;}</style><path d="M137 477.4c0 4.9-4 9-9 9H89.2c-4.9 0-9-4-9-9V456.5c0-4.9 4-9 9-9h38.8c4.9 0 9 4 9 9V477.4z" class="a"/><path d="M479.1 477.4c0 4.9-4 9-9 9h-38.8c-4.9 0-9-4-9-9V456.5c0-4.9 4-9 9-9h38.8c5 0 9 4 9 9V477.4z" class="a"/><path d="M421.3 398.1c0 6.3-5.1 11.3-11.4 11.3H222.1c-6.3 0-11.4-5.1-11.4-11.3V210.2c0-6.3 5.1-11.4 11.4-11.4h187.9c6.3 0 11.4 5.1 11.4 11.4V398.1z" fill="#C17E52"/><path d="M421.3 210.2v187.9c0 6.3-5.1 11.3-11.4 11.3H222.1" fill="#B56841"/><path d="M210.7 210.2c0-6.3 5.1-11.4 11.4-11.4h187.9c6.3 0 11.4 5.1 11.4 11.4v187.9c0 6.3-5.1 11.3-11.4 11.3" fill="#A86743"/><path d="M96.3 175.7c-7.4 0-13.4 6-13.4 13.4v216.6c0 7.4 6 13.4 13.4 13.4 7.4 0 13.4-6 13.4-13.4V189.1C109.8 181.7 103.8 175.7 96.3 175.7z" fill="#FF7F00"/><path d="M96.3 175.7c-7.4 0-13.4 6-13.4 13.4v84.4c0 7.4 6 13.4 13.4 13.4 7.4 0 13.4-6 13.4-13.4v-84.4C109.8 181.7 103.8 175.7 96.3 175.7z" class="b"/><path d="M496.2 456.9c0 4.9-4 9-9 9H72.1c-4.9 0-9-4-9-9v-43.3c0-5 4-9 9-9H487.3c4.9 0 9 4 9 9V456.9z" fill="#93A4A5"/><path d="M487.3 404.6H72.1c-4.9 0-9 4-9 9v4.5c0 4.9 4 9 9 9H487.3c4.9 0 9-4 9-9v-4.5C496.2 408.6 492.2 404.6 487.3 404.6z" fill="#A9BFBF"/><circle cx="96.3" cy="106.2" r="82.9" fill="#D3C794"/><path d="M179.2 106.2c0 45.8-37.1 82.9-82.9 82.9s-82.9-37.1-82.9-82.9c0-45.8 37.1-47 82.9-47C142.1 59.2 179.2 60.5 179.2 106.2z" fill="#EAE0B7"/><path d="M96.3 202.6C43.2 202.6 0 159.4 0 106.2S43.2 9.9 96.3 9.9c53.1 0 96.3 43.2 96.3 96.3C192.7 159.4 149.5 202.6 96.3 202.6zM96.3 36.8c-38.3 0-69.4 31.2-69.4 69.5s31.2 69.5 69.4 69.5c38.3 0 69.5-31.2 69.5-69.5S134.6 36.8 96.3 36.8z" class="c"/><path d="M103.6 99.2c0 3.9-3.1 7-7 7s-7-3.1-7-7c0-3.9 3.1-59.1 7-59.1S103.6 95.4 103.6 99.2z" class="c"/><path d="M96.6 40.2c3.9 0 7 55.2 7 59.1 0 3.9-3.1 7-7 7" class="b"/><circle cx="96.3" cy="106.2" r="12.3" class="a"/><path d="M280.9 110.4l28.4-33.3c1.1-1.3 1.4-3.2 0.6-4.8 -0.7-1.6-2.3-2.6-4.1-2.6h-13.5c-1.3 0-2.6 0.6-3.5 1.6l-24.9 30.6V74.2c0-2.5-2-4.5-4.5-4.5h-10.9c-2.5 0-4.5 2-4.5 4.5v84.5c0 2.5 2 4.5 4.5 4.5h10.9c2.5 0 4.5-2 4.5-4.5v-30.6l3.1-3.6 24.6 36.6c0.8 1.2 2.2 2 3.7 2h12.9c1.7 0 3.2-0.9 4-2.4 0.8-1.5 0.7-3.2-0.2-4.6L280.9 110.4z" class="c"/><path d="M390 109.9h-27.8c-2.5 0-4.5 2-4.5 4.5v8.8c0 2.5 2 4.5 4.5 4.5h12.7v17.6c-2.3 0.5-5.6 1-10.1 1 -17.6 0-28.1-11.1-28.1-29.6 0-18.5 11-29.5 29.5-29.5 8.5 0 13.5 1.7 16.9 3.3 1.2 0.5 2.5 0.5 3.7 0 1.2-0.5 2.1-1.6 2.4-2.8l2.7-8.9c0.6-2.1-0.4-4.4-2.4-5.3 -4.3-2.1-12.7-4.3-23-4.3 -29.9 0-50.1 19.3-50.3 48.1 0 14 4.8 26.6 13.2 34.7 8.8 8.3 20.1 12.4 34.7 12.4 11.4 0 21.2-2.7 27.5-4.9 1.8-0.6 3-2.3 3-4.2v-40.6C394.4 111.9 392.4 109.9 390 109.9z" class="c"/></svg>
